<svg xmlns="http://www.w3.org/2000/svg" viewBox="8 -20 228 90">
  <defs>
    <linearGradient id="v1Hull" x1="0" y1="0" x2="0" y2="1">
      <stop offset="0" stop-color="#6d7f72"/><stop offset="1" stop-color="#46554b"/>
    </linearGradient>
    <clipPath id="v1Clip">
      <path d="M18 42 Q20 30 44 30 L212 30 Q228 32 230 44 Q228 58 210 60 L40 60 Q20 58 18 42 Z"/>
    </clipPath>
  </defs>
  <style>
    .bob { animation: v1bob 2.9s ease-in-out infinite alternate; animation-delay: -1.4s; }
    @keyframes v1bob { from { transform: translateY(-4px) rotate(-1.6deg); } to { transform: translateY(4px) rotate(1.6deg); } }
    .smoke { transform-box: fill-box; animation: v1smoke 1.9s ease-out infinite; }
    .smoke.d2 { animation-delay: -0.6s; } .smoke.d3 { animation-delay: -1.2s; }
    @keyframes v1smoke { 0% { transform: translateY(0) scale(.6); opacity: .55; } 100% { transform: translateY(-26px) scale(1.5); opacity: 0; } }
  </style>
  <g class="bob">
    <g class="smoke"><circle cx="196" cy="18" r="5" fill="#aab6ad"/></g>
    <g class="smoke d2"><circle cx="199" cy="18" r="4" fill="#aab6ad"/></g>
    <g class="smoke d3"><circle cx="193" cy="18" r="4.5" fill="#aab6ad"/></g>
    <rect x="192" y="20" width="7" height="22" rx="2" fill="#3c4a41"/>
    <path d="M18 42 Q20 30 44 30 L212 30 Q228 32 230 44 Q228 58 210 60 L40 60 Q20 58 18 42 Z" fill="url(#v1Hull)" stroke="#31403a" stroke-width="2"/>
    <g clip-path="url(#v1Clip)">
      <ellipse cx="70" cy="46" rx="12" ry="6" fill="#8a5a3b" opacity=".75"/>
      <ellipse cx="118" cy="54" rx="9" ry="4.5" fill="#8a5a3b" opacity=".65"/>
      <ellipse cx="176" cy="48" rx="7" ry="4" fill="#8a5a3b" opacity=".7"/>
      <ellipse cx="42" cy="55" rx="6" ry="3.5" fill="#8a5a3b" opacity=".6"/>
      <line x1="30" y1="38" x2="222" y2="38" stroke="#788b7d" stroke-width="1.5" opacity=".6"/>
      <circle cx="58" cy="45" r="2" fill="#2c3831"/><circle cx="92" cy="45" r="2" fill="#2c3831"/>
      <circle cx="160" cy="45" r="2" fill="#2c3831"/><circle cx="196" cy="45" r="2" fill="#2c3831"/>
    </g>
    <rect x="128" y="12" width="34" height="22" rx="4" fill="#57685c" stroke="#31403a" stroke-width="2"/>
    <rect x="136" y="17" width="12" height="9" rx="2" fill="#9fd4e8" opacity=".85"/>
  </g>
</svg>
