<svg xmlns="http://www.w3.org/2000/svg" viewBox="10 -8 244 96">
  <defs>
    <linearGradient id="v3Hull" x1="0" y1="0" x2="0" y2="1">
      <stop offset="0" stop-color="#93a0ad"/><stop offset=".6" stop-color="#6b7885"/><stop offset="1" stop-color="#4d5763"/>
    </linearGradient>
    <clipPath id="v3Clip">
      <path d="M28 38 Q70 26 125 26 L226 30 Q244 38 246 52 Q240 66 220 70 L90 74 Q45 70 28 58 Q24 48 28 38 Z"/>
    </clipPath>
  </defs>
  <style>
    .bob { animation: v3bob 2.9s ease-in-out infinite alternate; animation-delay: -1.1s; }
    @keyframes v3bob { from { transform: translateY(-4px) rotate(-1.6deg); } to { transform: translateY(4px) rotate(1.6deg); } }
    .prop { transform-box: fill-box; transform-origin: center; animation: v3prop .5s linear infinite; animation-delay: -0.05s; }
    @keyframes v3prop { 0% { transform: scaleY(1); } 50% { transform: scaleY(.15); } 100% { transform: scaleY(1); } }
  </style>
  <g class="bob">
    <g class="prop"><ellipse cx="20" cy="52" rx="6" ry="13" fill="#5d6a77"/></g>
    <path d="M24 44 L42 36 L42 68 L24 60 Z" fill="#57626f"/>
    <path d="M28 38 Q70 26 125 26 L226 30 Q244 38 246 52 Q240 66 220 70 L90 74 Q45 70 28 58 Q24 48 28 38 Z" fill="url(#v3Hull)" stroke="#3a434e" stroke-width="2"/>
    <g clip-path="url(#v3Clip)">
      <path d="M40 62 Q120 74 210 64 L210 70 Q120 80 42 68 Z" fill="#414b57"/>
      <rect x="172" y="26" width="14" height="6" rx="2" fill="#57626f"/>
      <text x="94" y="52" fill="#e8edf2" font-size="13" font-weight="bold" font-family="Georgia, serif">U-96</text>
      <circle cx="66" cy="48" r="3" fill="#3a434e"/><circle cx="80" cy="49" r="3" fill="#3a434e"/>
      <ellipse cx="130" cy="36" rx="70" ry="5" fill="#ffffff" opacity=".12"/>
    </g>
    <path d="M112 30 L146 30 L142 8 L118 8 Z" fill="#6b7885" stroke="#3a434e" stroke-width="2"/>
    <line x1="126" y1="8" x2="126" y2="-4" stroke="#3a434e" stroke-width="3" stroke-linecap="round"/>
    <line x1="126" y1="-3" x2="134" y2="-3" stroke="#3a434e" stroke-width="3" stroke-linecap="round"/>
    <rect x="116" y="12" width="24" height="3" fill="#3a434e" opacity=".7"/>
    <g stroke="#3a434e" stroke-width="2" stroke-linecap="round">
      <line x1="168" y1="24" x2="188" y2="20"/>
      <line x1="178" y1="27" x2="178" y2="21"/>
    </g>
  </g>
</svg>
