<svg xmlns="http://www.w3.org/2000/svg" viewBox="11 1 176 80">
  <defs>
    <linearGradient id="f18Hull" x1="0" y1="0" x2="0" y2="1">
      <stop offset="0" stop-color="#f2f5f7"/><stop offset=".38" stop-color="#bcc7cf"/>
      <stop offset=".52" stop-color="#84949e"/><stop offset=".8" stop-color="#5a6a74"/>
      <stop offset="1" stop-color="#43525c"/>
    </linearGradient>
    <radialGradient id="f18Dome" cx=".4" cy=".28" r=".9">
      <stop offset="0" stop-color="#48606e"/><stop offset=".6" stop-color="#263641"/><stop offset="1" stop-color="#131e26"/>
    </radialGradient>
    <filter id="f18n" x="-20%" y="-20%" width="140%" height="140%">
      <feTurbulence type="fractalNoise" baseFrequency=".9 .2" numOctaves="2"/>
      <feColorMatrix type="matrix" values="0 0 0 0 .75  0 0 0 0 .78  0 0 0 0 .82  0 0 0 .14 0"/>
      <feComposite operator="in" in2="SourceAlpha"/>
    </filter>
    <clipPath id="f18Clip">
      <ellipse cx="99" cy="52" rx="76" ry="17"/>
    </clipPath>
  </defs>
  <style>
    .wobble { transform-box: fill-box; transform-origin: center; animation: f18wobble 2.4s ease-in-out infinite alternate; animation-delay: -1.6s; }
    @keyframes f18wobble { from { transform: translateY(-6px) rotate(-2deg); } to { transform: translateY(6px) rotate(2deg); } }
    .light { animation: f18blink 1.1s ease-in-out infinite; animation-delay: -0.4s; }
    @keyframes f18blink { 0%, 100% { opacity: .25; } 50% { opacity: 1; } }
  </style>
  <g class="wobble">
    <path d="M99 13 Q129 13 136 40 L62 40 Q69 13 99 13 Z" fill="url(#f18Dome)"/>
    <path d="M74 22 Q88 13 106 15" stroke="#8fb3c4" stroke-width="1.6" fill="none" opacity=".65"/>
    <path d="M112 18 Q120 22 126 30" stroke="#5c7684" stroke-width="1" fill="none" opacity=".5"/>
    <ellipse cx="99" cy="52" rx="76" ry="17" fill="url(#f18Hull)"/>
    <g clip-path="url(#f18Clip)">
      <ellipse cx="99" cy="52" rx="76" ry="17" fill="#fff" filter="url(#f18n)" opacity=".5"/>
      <ellipse cx="99" cy="45" rx="64" ry="7.5" fill="#ffffff" opacity=".35"/>
      <path d="M25 52 Q99 42 173 52" stroke="#39454e" stroke-width=".9" fill="none" opacity=".65"/>
      <path d="M31 57 Q99 66 167 57" stroke="#2c363e" stroke-width=".9" fill="none" opacity=".5"/>
      <g fill="#39454e" opacity=".75">
        <circle cx="47" cy="55" r="1.1"/><circle cx="65" cy="59" r="1.1"/><circle cx="85" cy="61" r="1.1"/>
        <circle cx="113" cy="61" r="1.1"/><circle cx="133" cy="59" r="1.1"/><circle cx="151" cy="55" r="1.1"/>
      </g>
      <circle class="light" cx="57" cy="58" r="2.6" fill="#f4f7f9"/>
      <circle class="light" cx="99" cy="63" r="2.6" fill="#f4f7f9" style="animation-delay:-0.75s"/>
      <circle class="light" cx="141" cy="58" r="2.6" fill="#f4f7f9" style="animation-delay:-1.05s"/>
      <circle cx="30" cy="51" r="2" fill="#e05252" opacity=".9"/>
      <circle cx="168" cy="51" r="2" fill="#52e08a" opacity=".85"/>
    </g>
  </g>
</svg>
