<svg xmlns="http://www.w3.org/2000/svg" viewBox="16 -8 220 106">
  <defs>
    <linearGradient id="n20fG" x1="0" y1="0" x2="0" y2="1">
      <stop offset="0" stop-color="#71805f"/><stop offset=".3" stop-color="#54644b"/>
      <stop offset=".7" stop-color="#39473a"/><stop offset="1" stop-color="#242f24"/>
    </linearGradient>
    <filter id="n20fn" x="-20%" y="-20%" width="140%" height="140%">
      <feTurbulence type="fractalNoise" baseFrequency=".6" numOctaves="2"/>
      <feColorMatrix type="matrix" values="0 0 0 0 .38  0 0 0 0 .44  0 0 0 0 .3  0 0 0 .3 0"/>
      <feComposite operator="in" in2="SourceAlpha"/>
    </filter>
  </defs>
  <style>
    .n20-bob { transform-box: fill-box; transform-origin: center; animation: n20bob 2.9s ease-in-out infinite alternate; animation-delay: -1.1s; }
    @keyframes n20bob { from{ transform: translateY(-3px) rotate(-1.2deg); } to{ transform: translateY(3px) rotate(1.2deg); } }
    .hump { transform-box: fill-box; animation: humpBob 1.9s ease-in-out infinite alternate; }
    .hump.d2 { animation-delay: -0.65s; }
    .hump.d3 { animation-delay: -1.3s; }
    @keyframes humpBob { from{transform:translateY(-4px)} to{transform:translateY(4px)} }
  </style>
  <g class="n20-bob">
    <g class="hump">
      <path d="M26 94 Q30 60 60 60 Q88 60 92 94 Z" fill="url(#n20fG)"/>
      <path d="M26 94 Q30 60 60 60 Q88 60 92 94 Z" fill="#fff" filter="url(#n20fn)" opacity=".45"/>
      <path d="M36 72 Q54 61 78 68" stroke="#8fa07a" stroke-width="1.6" fill="none" opacity=".55"/>
    </g>
    <g class="hump d2">
      <path d="M100 94 Q106 54 138 54 Q170 56 174 94 Z" fill="url(#n20fG)"/>
      <path d="M100 94 Q106 54 138 54 Q170 56 174 94 Z" fill="#fff" filter="url(#n20fn)" opacity=".45"/>
      <path d="M112 66 Q136 54 160 64" stroke="#8fa07a" stroke-width="1.6" fill="none" opacity=".55"/>
    </g>
    <g class="hump d3">
      <path d="M182 94 Q182 62 192 44 Q200 30 199 20 Q202 8 214 10 Q226 12 224 24 Q222 33 211 34 Q207 50 210 66 Q212 82 214 94 Z" fill="url(#n20fG)"/>
      <path d="M182 94 Q182 62 192 44 Q200 30 199 20 Q202 8 214 10 Q226 12 224 24 Q222 33 211 34 Q207 50 210 66 Q212 82 214 94 Z" fill="#fff" filter="url(#n20fn)" opacity=".45"/>
      <path d="M194 44 Q200 30 200 20 Q202 12 210 12" stroke="#8fa07a" stroke-width="1.4" fill="none" opacity=".55"/>
      <circle cx="215" cy="19" r="2.2" fill="#d9b25e"/>
      <circle cx="215.7" cy="19" r="1.1" fill="#0e1408"/>
      <circle cx="214" cy="17.5" r=".6" fill="#fff" opacity=".7"/>
      <circle cx="221" cy="15" r=".9" fill="#1a2415"/>
      <path d="M222 24 Q226 25 228 23" stroke="#1a2415" stroke-width="1.3" fill="none" stroke-linecap="round"/>
      <path d="M208 28 l6 2" stroke="#2c3a2c" stroke-width="1" opacity=".7"/>
    </g>
  </g>
</svg>
